<?xml version="1.0" encoding="utf-8"?>
<!-- Generator: Adobe Illustrator 23.0.6, SVG Export Plug-In . SVG Version: 6.00 Build 0)  -->
<svg version="1.1" id="Layer_1" xmlns="http://www.w3.org/2000/svg" xmlns:xlink="http://www.w3.org/1999/xlink" x="0px" y="0px"
	 viewBox="0 0 184.8 71.6" style="enable-background:new 0 0 184.8 71.6;" xml:space="preserve">
<style type="text/css">
	.st0{fill:#19212F;}
</style>
<g id="Group_23" transform="translate(585 -362)">
	<g id="ADM_Logo_White" transform="translate(-585 362)">
		<g id="Group_22" transform="translate(0 0)">
			<g>
				<g id="Group_21">
					<path id="Path_26" class="st0" d="M88.5,0.1L59.4,0v58.5l29.2-0.1c16.1,0,29.2-13.1,29.2-29.2C117.7,13.1,104.7,0.1,88.5,0.1
						C88.5,0.1,88.5,0.1,88.5,0.1 M84.1,43l-5.3,0V15.4l5.3,0c7.6,0,13.8,6.2,13.8,13.8C97.8,36.8,91.7,43,84.1,43"/>
					<path id="Path_27" class="st0" d="M184.8,0h-19.4l-16,34.1L133.5,0h-19.4v13.1c6.2,9.8,6.2,22.3,0,32.2v13.1h18v-27l12.7,27
						h9.4l12.7-27v26.9h18L184.8,0z"/>
					<path id="Path_28" class="st0" d="M6.5,69.4H2.1l-0.9,2.2H0.2l3.5-8.4H5l3.4,8.4H7.4L6.5,69.4z M6.2,68.5L4.3,64h0l-1.8,4.6
						H6.2z"/>
					<path id="Path_29" class="st0" d="M16.9,68.5l1.8,3.1h-1.2l-1.7-2.9h-2.7v2.9h-1v-8.4h3.6c1.6-0.1,2.9,1.1,3,2.6
						c0,0,0,0.1,0,0.1C18.8,67.1,18,68.1,16.9,68.5 M13.2,67.8h2.4c1.1,0.1,2-0.7,2.1-1.8c0,0,0-0.1,0-0.1c0-1.1-0.8-1.9-1.9-1.9
						c-0.1,0-0.1,0-0.2,0h-2.4V67.8z"/>
					<path id="Path_30" class="st0" d="M24.6,64h-2.9v-0.8h6.8V64h-2.9v7.6h-1.1V64z"/>
					<rect id="Rectangle_10" x="32.2" y="63.1" class="st0" width="1.1" height="8.4"/>
					<path id="Path_31" class="st0" d="M37.1,70.2l0.6-0.7c0.7,0.8,1.7,1.2,2.7,1.3c1.1,0,1.9-0.5,1.9-1.5c0-1.1-1.1-1.4-2.4-1.7
						c-1.4-0.3-2.5-1-2.5-2.4c0-1.6,1.3-2.2,2.9-2.2c1.1,0,2.1,0.3,2.9,1l-0.5,0.7c-0.7-0.6-1.5-0.9-2.4-0.9c-1,0-1.8,0.4-1.8,1.4
						c0,1.1,1,1.4,2.1,1.7c1.4,0.4,2.8,0.8,2.8,2.4c0,1.6-1.3,2.3-3,2.3C39.2,71.6,38,71.1,37.1,70.2"/>
					<path id="Path_32" class="st0" d="M49.4,64h-2.9v-0.8h6.8V64h-2.9v7.6h-1.1V64z"/>
					<rect id="Rectangle_11" x="57" y="63.1" class="st0" width="1.1" height="8.4"/>
					<path id="Path_33" class="st0" d="M62.1,67.3c-0.1-2.3,1.7-4.2,4-4.3c0.2,0,0.3,0,0.5,0c1.3-0.1,2.5,0.4,3.3,1.3L69.2,65
						c-0.7-0.7-1.6-1.1-2.6-1.1c-1.9,0-3.4,1.5-3.4,3.4s1.5,3.4,3.4,3.4l0,0c1,0,2-0.4,2.7-1.2l0.7,0.7c-0.9,0.9-2.1,1.4-3.3,1.4
						C64,71.6,62.1,69.9,62.1,67.3"/>
					<path id="Path_34" class="st0" d="M79.2,63.1h3.3c2.2,0,3.9,1.7,4,3.8c0,0.1,0,0.2,0,0.4c0.2,2.1-1.4,4-3.6,4.2
						c-0.1,0-0.3,0-0.4,0h-3.3V63.1z M82.2,70.7c2.1,0,3.1-1.4,3.1-3.4c0-2-1.1-3.3-3.1-3.3h-2v6.7L82.2,70.7z"/>
					<path id="Path_35" class="st0" d="M90.5,63.1h5.9V64h-4.8V67h4.2v0.8h-4.2v2.9h5v0.8h-6V63.1z"/>
					<path id="Path_36" class="st0" d="M107.4,63.1v8.4h-0.9l-5-6.9v0c0,0.8,0.1,1.5,0.1,2.4v4.5h-1v-8.4h0.9l5,6.8
						c-0.1-0.9-0.1-1.7-0.1-2.6v-4.3H107.4z"/>
					<rect id="Rectangle_12" x="111.9" y="63.1" class="st0" width="1.1" height="8.4"/>
					<path id="Path_37" class="st0" d="M117.5,63.1h1.1l3.4,4.8l3.4-4.8h1.1v8.4h-1.1v-4.8l0.1-2.1h0l-3.4,4.8h-0.2l-3.4-4.8h0
						l0.1,2.1v4.8h-1V63.1z"/>
					<path id="Path_38" class="st0" d="M141.8,63.1h1.1l3.4,4.8l3.4-4.8h1.1v8.4h-1.1v-4.8l0.1-2.1h0l-3.4,4.8h-0.2l-3.4-4.8h0
						l0.1,2.1v4.8h-1V63.1z"/>
					<rect id="Rectangle_13" x="155.3" y="63.1" class="st0" width="1.1" height="8.4"/>
					<path id="Path_39" class="st0" d="M160.9,63.1h1v7.6h4.4v0.8h-5.5L160.9,63.1z"/>
					<path id="Path_40" class="st0" d="M169.9,63.1h1v7.6h4.4v0.8h-5.5L169.9,63.1z"/>
					<path id="Path_41" class="st0" d="M178.3,70.2l0.6-0.7c0.7,0.8,1.7,1.2,2.7,1.3c1.1,0,1.9-0.5,1.9-1.5c0-1.1-1.1-1.4-2.4-1.7
						c-1.4-0.3-2.5-1-2.5-2.4c0-1.6,1.3-2.2,2.9-2.2c1.1,0,2.1,0.3,2.9,1l-0.5,0.7c-0.7-0.6-1.5-0.9-2.4-0.9c-1,0-1.8,0.4-1.8,1.4
						c0,1.1,1,1.4,2.1,1.7c1.4,0.4,2.8,0.8,2.8,2.4c0,1.6-1.3,2.3-3,2.3C180.4,71.6,179.2,71.1,178.3,70.2"/>
				</g>
			</g>
			<path id="Path_25" class="st0" d="M35.2,19.4l5.7,14.7H29.5L35.2,19.4z M25.7,0L0,58.5h20.1l3.9-10.2h22.3l3.9,10.2h8V30.1
				L45.1,0H25.7z"/>
		</g>
	</g>
</g>
</svg>
