<svg width="150" height="36" version="1.0" id="Layer_1" xmlns="http://www.w3.org/2000/svg" x="0px" y="0px" viewBox="0 0 150 36" style="enable-background:new 0 0 150 36;" xmlns:xlink="http://www.w3.org/1999/xlink" xml:space="preserve">
<style type="text/css">
	.st0{fill:none !important;}
</style>
<g>
	<g>
		<path d="M31.04,16.25c1.8,1.09,3.57,1.29,5.33,0.59c1.75-0.7,3.4-2.14,4.94-4.33c1.49-2.12,2.2-3.96,2.11-5.51
			c-0.08-1.55-0.94-2.83-2.57-3.82c-0.91-0.56-1.62-0.8-2.12-0.73c-0.49,0.07-1.04,0.4-1.64,0.96c-0.8,0.76-1.6,0.9-2.4,0.41
			c-0.38-0.23-0.58-0.53-0.6-0.9c-0.03-0.37,0.06-0.7,0.26-0.98c0.53-0.76,1.53-1.07,2.98-0.94c1.46,0.13,2.83,0.59,4.12,1.38
			c2.14,1.31,3.5,3.14,4.08,5.52c0.58,2.37,0.06,4.7-1.54,6.98c-1.56,2.22-3.55,3.56-5.95,4.03c-2.4,0.46-4.67,0.04-6.81-1.25
			c-3.31-2.02-4.46-4.6-3.43-7.74l0.79,0.48C27.8,12.83,28.62,14.78,31.04,16.25" style="color: rgb(0, 0, 0); fill: rgb(0, 0, 0); stroke: rgb(0, 0, 0);"></path>
		<path d="M25.95,20.5c0,4.44,0.88,7.78,2.63,10.01c1.76,2.23,4.39,3.34,7.9,3.34c3.08,0,5.52-1.11,7.31-3.34
			c1.79-2.23,2.69-5.55,2.69-9.96c0-4.29-0.88-7.58-2.65-9.87c-1.76-2.29-4.32-3.43-7.67-3.43c-3.3,0-5.82,1.12-7.58,3.35
			C26.83,12.82,25.95,16.12,25.95,20.5 M21.33,20.35c0-4.27,1.41-7.69,4.24-10.27c2.82-2.58,6.35-3.87,10.57-3.87
			c4.26,0,7.82,1.28,10.68,3.83c2.86,2.55,4.29,6.04,4.29,10.45c0,4.28-1.37,7.74-4.11,10.39c-2.74,2.65-6.34,3.97-10.8,3.97
			c-4.34,0-7.91-1.32-10.69-3.97C22.72,28.24,21.33,24.73,21.33,20.35" style="color: rgb(0, 0, 0); fill: rgb(0, 0, 0); stroke: rgb(0, 0, 0);"></path>
		<path d="M59.66,21.23c0.46-1.21,1.2-2.23,2.24-3.04c1.03-0.82,2.04-1.23,3.03-1.23c0.89,0,1.59,0.28,2.11,0.84
			c0.51,0.56,0.77,1.13,0.77,1.72c0,0.4-0.13,0.73-0.4,1.02c-0.26,0.29-0.58,0.43-0.96,0.43c-0.67,0-1.19-0.5-1.54-1.51
			c-0.24-0.68-0.61-1.02-1.09-1.02c-0.58,0-1.28,0.4-2.09,1.19c-0.81,0.8-1.33,1.62-1.56,2.48c-0.23,0.86-0.34,2.03-0.34,3.53v2.98
			c0,1.78,0.02,2.91,0.07,3.37c0.05,0.46,0.24,0.82,0.58,1.06c0.34,0.25,0.94,0.37,1.81,0.37h0.57v0.94h-8.81v-0.94h0.43
			c0.81,0,1.39-0.11,1.73-0.34c0.34-0.22,0.55-0.54,0.62-0.95c0.07-0.41,0.1-1.58,0.1-3.51V23.9c0-1.8-0.02-2.92-0.07-3.38
			c-0.05-0.46-0.24-0.81-0.58-1.06s-0.94-0.38-1.8-0.38h-0.43v-0.92c1.26-0.15,2.92-0.55,4.96-1.2
			C59.4,18.03,59.62,19.46,59.66,21.23" style="color: rgb(0, 0, 0); fill: rgb(0, 0, 0); stroke: rgb(0, 0, 0);"></path>
		<path d="M70.24,8.47c0-0.58,0.21-1.09,0.62-1.51c0.41-0.42,0.91-0.63,1.49-0.63c0.58,0,1.08,0.21,1.48,0.63
			c0.41,0.42,0.61,0.92,0.61,1.51c0,0.6-0.2,1.11-0.61,1.53c-0.41,0.42-0.9,0.63-1.48,0.63c-0.58,0-1.08-0.21-1.49-0.63
			C70.44,9.58,70.24,9.07,70.24,8.47 M74.15,16.99v11.64c0,1.78,0.03,2.9,0.08,3.36c0.05,0.46,0.25,0.82,0.59,1.06
			c0.34,0.24,0.94,0.37,1.81,0.37h0.43v0.94h-8.95v-0.94h0.69c0.96,0,1.59-0.14,1.88-0.42c0.29-0.28,0.46-0.61,0.51-1
			c0.05-0.39,0.07-1.51,0.07-3.37v-5.05c0-1.96-0.09-3.15-0.27-3.59c-0.18-0.43-0.43-0.71-0.73-0.82c-0.3-0.11-0.84-0.16-1.59-0.16
			h-0.55v-0.94c2.41-0.24,4.28-0.6,5.6-1.08H74.15z" style="color: rgb(0, 0, 0); fill: rgb(0, 0, 0); stroke: rgb(0, 0, 0);"></path>
		<path d="M90.42,22.48c0.04-0.31,0.06-0.59,0.06-0.84c0-1.2-0.35-2.13-1.05-2.79c-0.7-0.66-1.55-0.99-2.57-0.99
			c-2.46,0-3.93,1.54-4.41,4.61H90.42z M93.96,23.31H82.38c-0.05,0.8-0.08,1.4-0.08,1.79c0,2.93,0.46,5.14,1.37,6.61
			c0.91,1.47,2.28,2.21,4.09,2.21c2.46,0,4.21-1.11,5.24-3.33h0.97c-0.43,1.39-1.29,2.47-2.58,3.26c-1.28,0.78-2.68,1.17-4.2,1.17
			c-1.41,0-2.73-0.36-3.98-1.07c-1.25-0.71-2.28-1.73-3.07-3.03c-0.8-1.31-1.2-2.89-1.2-4.75c0-2.64,0.77-4.83,2.31-6.58
			c1.54-1.75,3.47-2.62,5.78-2.62c2.18,0,3.86,0.67,5.05,2.01C93.27,20.31,93.89,21.76,93.96,23.31" style="color: rgb(0, 0, 0); fill: rgb(0, 0, 0); stroke: rgb(0, 0, 0);"></path>
		<path d="M100.8,16.97h0.55c0.31,0.84,0.48,1.99,0.53,3.45c0.97-1.16,1.98-2.02,3.05-2.59c1.06-0.57,2.17-0.86,3.33-0.86
			c1.32,0,2.4,0.28,3.24,0.84c0.84,0.56,1.38,1.24,1.62,2.05c0.24,0.81,0.36,1.99,0.36,3.54v5.23c0,1.93,0.03,3.11,0.1,3.53
			c0.07,0.42,0.28,0.74,0.64,0.95c0.36,0.21,1.01,0.32,1.97,0.32v0.94h-8.45v-0.94h0.38c0.97,0,1.6-0.14,1.9-0.43
			c0.3-0.29,0.47-0.62,0.51-1c0.04-0.38,0.06-1.5,0.06-3.37v-5.39c0-1.32-0.06-2.26-0.19-2.83c-0.13-0.56-0.47-1.06-1.03-1.5
			c-0.56-0.43-1.27-0.65-2.13-0.65c-0.98,0-1.92,0.3-2.82,0.89c-0.9,0.59-1.74,1.48-2.54,2.66v6.82c0,1.93,0.04,3.11,0.11,3.53
			c0.07,0.42,0.29,0.74,0.65,0.95c0.36,0.21,1.02,0.32,1.99,0.32v0.94h-8.39v-0.94c0.93,0,1.58-0.1,1.94-0.29
			c0.36-0.19,0.59-0.48,0.68-0.87c0.09-0.39,0.13-1.6,0.13-3.65v-4.99c0-1.95-0.04-3.13-0.11-3.55c-0.07-0.42-0.29-0.73-0.65-0.94
			c-0.36-0.21-1.02-0.32-1.99-0.32v-0.94C97.72,17.72,99.24,17.42,100.8,16.97" style="color: rgb(0, 0, 0); fill: rgb(0, 0, 0); stroke: rgb(0, 0, 0);"></path>
		<path d="M128.02,18.57h-5.01v10.09c0,1.55,0.07,2.59,0.2,3.13c0.13,0.54,0.42,0.97,0.86,1.3c0.44,0.33,0.91,0.49,1.41,0.49
			c0.97,0,1.82-0.56,2.54-1.67l0.65,0.39c-0.42,0.9-1.04,1.57-1.86,2.03C126,34.78,125.17,35,124.33,35c-0.97,0-1.83-0.29-2.57-0.87
			c-0.74-0.58-1.2-1.25-1.38-2.03c-0.18-0.78-0.27-2.13-0.27-4.08v-9.46h-2.4v-0.93c1.11-0.03,2.1-0.5,2.98-1.41
			c0.88-0.91,1.44-2.19,1.68-3.83h0.65v5.23h5.01V18.57z" style="color: rgb(0, 0, 0); fill: rgb(0, 0, 0); stroke: rgb(0, 0, 0);"></path>
	</g>
	<rect x="0" class="st0" width="150" height="36"></rect>
</g>
</svg>